# xmcd CD database file
#
# Track frame offsets:
#	150
#	6562
#	15297
#	19304
#	25384
#	27964
#	38388
#	44152
#	49046
#	57404
#	75714
#	88785
#	93546
#	105060
#	119534
#	144868
#	165762
#	181236
#	192324
#	200105
#	206937
#	213717
#	246638
#
# Disc length: 3489 seconds
#
# Revision: 3
# Processed by: cddbd v1.5.2PL0 Copyright (c) Steve Scherf et al.
# Submitted via: CDex 1.51
#
DISCID=410d9f17
DTITLE=Various Artist - Yehudi Menuhin - Vol.09
DYEAR=1900
DGENRE=Classique
TTITLE0=Elgar - Variations of an Original Theme ''Enigma'' Op.36 - Theme - Adante  [ Royal Philharmonic Orchestra, Menuhin - 1995]
TTITLE1=Elgar - Variations of an Original Theme ''Enigma'' Op.36 - I. C.A.E -  Andante
TTITLE2=Elgar - Variations of an Original Theme ''Enigma'' Op.36 - II. H.D.S-P - Allegro
TTITLE3=Elgar - Variations of an Original Theme ''Enigma'' Op.36 - III. R.B.T - Allegretto
TTITLE4=Elgar - Variations of an Original Theme ''Enigma'' Op.36 - IV. W.M.B - Allegro di molto
TTITLE5=Elgar - Variations of an Original Theme ''Enigma'' Op.36 - V. R.P.A - Moderato
TTITLE6=Elgar - Variations of an Original Theme ''Enigma'' Op.36 - VI. Ysobel - Andantino
TTITLE7=Elgar - Variations of an Original Theme ''Enigma'' Op.36 - VII. Troyte - Presto
TTITLE8=Elgar - Variations of an Original Theme ''Enigma'' Op.36 - VIII. W.N - Allegretto
TTITLE9=Elgar - Variations of an Original Theme ''Enigma'' Op.36 - IX. Nimrod - Adagio
TTITLE10=Elgar - Variations of an Original Theme ''Enigma'' Op.36 - X. Intermezzo - Dorabella - Allegretto
TTITLE11=Elgar - Variations of an Original Theme ''Enigma'' Op.36 - XI. G.R.S - Allegro di molto
TTITLE12=Elgar - Variations of an Original Theme ''Enigma'' Op.36 - XII. B.G.N - Andante
TTITLE13=Elgar - Variations of an Original Theme ''Enigma'' Op.36 - XIII. Romanza - Moderato
TTITLE14=Elgar - Variations of an Original Theme ''Enigma'' Op.36 - XIV. Finale - E.D.U - Allegro
TTITLE15=Elgar - Nursery Suite - I. Aubade
TTITLE16=Elgar - Nursery Suite - II. The Serious Doll
TTITLE17=Elgar - Nursery Suite - III. Busy-ness
TTITLE18=Elgar - Nursery Suite - IV. The Sad Doll
TTITLE19=Elgar - Nursery Suite - V. The Wagon (Passes)
TTITLE20=Elgar - Nursery Suite - VI. The Merry Doll
TTITLE21=Elgar - Nursery Suite - VII. Dreaming-Envoy
TTITLE22=Elgar - Nursery Suite - Chanson du matin, Op.15  n°2
EXTD=
EXTT0=
EXTT1=
EXTT2=
EXTT3=
EXTT4=
EXTT5=
EXTT6=
EXTT7=
EXTT8=
EXTT9=
EXTT10=
EXTT11=
EXTT12=
EXTT13=
EXTT14=
EXTT15=
EXTT16=
EXTT17=
EXTT18=
EXTT19=
EXTT20=
EXTT21=
EXTT22=
PLAYORDER=
